<svg width="1024" height="753" viewBox="0 0 1024 753" fill="none" xmlns="http://www.w3.org/2000/svg">
<g opacity="0.2" filter="url(#filter0_f_175_198)">
<ellipse cx="494.5" cy="85" rx="670.5" ry="350" fill="#B3A659"/>
</g>
<path d="M15.0349 321C16.5302 321 17.6622 321.63 18.4308 322.891C19.2134 324.138 19.6047 325.953 19.6047 328.336C19.6047 330.719 19.2134 332.541 18.4308 333.802C17.6622 335.063 16.5302 335.693 15.0349 335.693C13.5536 335.693 12.4216 335.063 11.639 333.802C10.8564 332.541 10.4651 330.719 10.4651 328.336C10.4651 325.967 10.8564 324.152 11.639 322.891C12.4216 321.63 13.5536 321 15.0349 321ZM11.9534 328.336C11.9534 330.026 12.1072 331.35 12.4146 332.306L17.0683 323.099C16.5791 322.448 15.9013 322.122 15.0349 322.122C14.0706 322.122 13.316 322.635 12.771 323.66C12.2259 324.672 11.9534 326.23 11.9534 328.336ZM15.0349 334.55C16.0131 334.55 16.7748 334.044 17.3198 333.033C17.8648 332.008 18.1373 330.442 18.1373 328.336C18.1373 326.549 17.9627 325.163 17.6133 324.18L12.9596 333.469C13.4627 334.19 14.1545 334.55 15.0349 334.55Z" fill="url(#paint0_linear_175_198)" fill-opacity="0.6"/>
<path d="M16.2926 358.135H19.3741V359.236H11.3874V358.135H14.9511V346.455L11.5551 348.471L10.9682 347.536L15.1607 344.959H16.2926V358.135Z" fill="url(#paint1_linear_175_198)" fill-opacity="0.6"/>
<path d="M15.0349 368.502C16.5302 368.502 17.6622 369.133 18.4308 370.393C19.2134 371.64 19.6047 373.455 19.6047 375.838C19.6047 378.221 19.2134 380.043 18.4308 381.304C17.6622 382.565 16.5302 383.195 15.0349 383.195C13.5536 383.195 12.4216 382.565 11.639 381.304C10.8564 380.043 10.4651 378.221 10.4651 375.838C10.4651 373.469 10.8564 371.654 11.639 370.393C12.4216 369.133 13.5536 368.502 15.0349 368.502ZM11.9534 375.838C11.9534 377.529 12.1072 378.852 12.4146 379.808L17.0683 370.601C16.5791 369.95 15.9013 369.624 15.0349 369.624C14.0706 369.624 13.316 370.137 12.771 371.162C12.2259 372.174 11.9534 373.732 11.9534 375.838ZM15.0349 382.052C16.0131 382.052 16.7748 381.546 17.3198 380.535C17.8648 379.51 18.1373 377.944 18.1373 375.838C18.1373 374.051 17.9627 372.665 17.6133 371.682L12.9596 380.971C13.4627 381.692 14.1545 382.052 15.0349 382.052Z" fill="url(#paint2_linear_175_198)" fill-opacity="0.6"/>
<path d="M16.2926 405.637H19.3741V406.738H11.3874V405.637H14.9511V393.957L11.5551 395.973L10.9682 395.038L15.1607 392.461H16.2926V405.637Z" fill="url(#paint3_linear_175_198)" fill-opacity="0.6"/>
<path d="M16.2926 429.388H19.3741V430.489H11.3874V429.388H14.9511V417.708L11.5551 419.724L10.9682 418.789L15.1607 416.212H16.2926V429.388Z" fill="url(#paint4_linear_175_198)" fill-opacity="0.6"/>
<path d="M15.0349 439.755C16.5302 439.755 17.6622 440.386 18.4308 441.646C19.2134 442.893 19.6047 444.708 19.6047 447.091C19.6047 449.474 19.2134 451.296 18.4308 452.557C17.6622 453.818 16.5302 454.448 15.0349 454.448C13.5536 454.448 12.4216 453.818 11.639 452.557C10.8564 451.296 10.4651 449.474 10.4651 447.091C10.4651 444.722 10.8564 442.907 11.639 441.646C12.4216 440.386 13.5536 439.755 15.0349 439.755ZM11.9534 447.091C11.9534 448.782 12.1072 450.105 12.4146 451.061L17.0683 441.854C16.5791 441.203 15.9013 440.878 15.0349 440.878C14.0706 440.878 13.316 441.39 12.771 442.415C12.2259 443.427 11.9534 444.985 11.9534 447.091ZM15.0349 453.305C16.0131 453.305 16.7748 452.8 17.3198 451.788C17.8648 450.763 18.1373 449.197 18.1373 447.091C18.1373 445.304 17.9627 443.919 17.6133 442.935L12.9596 452.225C13.4627 452.945 14.1545 453.305 15.0349 453.305Z" fill="url(#paint5_linear_175_198)" fill-opacity="0.6"/>
<path d="M16.2926 476.89H19.3741V477.992H11.3874V476.89H14.9511V465.21L11.5551 467.226L10.9682 466.291L15.1607 463.714H16.2926V476.89Z" fill="url(#paint6_linear_175_198)" fill-opacity="0.6"/>
<path d="M15.0349 487.257C16.5302 487.257 17.6622 487.888 18.4308 489.149C19.2134 490.396 19.6047 492.211 19.6047 494.594C19.6047 496.977 19.2134 498.798 18.4308 500.059C17.6622 501.32 16.5302 501.95 15.0349 501.95C13.5536 501.95 12.4216 501.32 11.639 500.059C10.8564 498.798 10.4651 496.977 10.4651 494.594C10.4651 492.224 10.8564 490.409 11.639 489.149C12.4216 487.888 13.5536 487.257 15.0349 487.257ZM11.9534 494.594C11.9534 496.284 12.1072 497.607 12.4146 498.563L17.0683 489.356C16.5791 488.705 15.9013 488.38 15.0349 488.38C14.0706 488.38 13.316 488.892 12.771 489.918C12.2259 490.929 11.9534 492.488 11.9534 494.594ZM15.0349 500.807C16.0131 500.807 16.7748 500.302 17.3198 499.29C17.8648 498.265 18.1373 496.699 18.1373 494.594C18.1373 492.806 17.9627 491.421 17.6133 490.437L12.9596 499.727C13.4627 500.447 14.1545 500.807 15.0349 500.807Z" fill="url(#paint7_linear_175_198)" fill-opacity="0.6"/>
<path d="M15.0349 511.008C16.5302 511.008 17.6622 511.639 18.4308 512.9C19.2134 514.147 19.6047 515.962 19.6047 518.345C19.6047 520.728 19.2134 522.549 18.4308 523.81C17.6622 525.071 16.5302 525.701 15.0349 525.701C13.5536 525.701 12.4216 525.071 11.639 523.81C10.8564 522.549 10.4651 520.728 10.4651 518.345C10.4651 515.975 10.8564 514.16 11.639 512.9C12.4216 511.639 13.5536 511.008 15.0349 511.008ZM11.9534 518.345C11.9534 520.035 12.1072 521.358 12.4146 522.314L17.0683 513.107C16.5791 512.456 15.9013 512.131 15.0349 512.131C14.0706 512.131 13.316 512.643 12.771 513.669C12.2259 514.68 11.9534 516.239 11.9534 518.345ZM15.0349 524.558C16.0131 524.558 16.7748 524.053 17.3198 523.041C17.8648 522.016 18.1373 520.451 18.1373 518.345C18.1373 516.557 17.9627 515.172 17.6133 514.188L12.9596 523.478C13.4627 524.198 14.1545 524.558 15.0349 524.558Z" fill="url(#paint8_linear_175_198)" fill-opacity="0.6"/>
<path d="M16.2926 548.143H19.3741V549.245H11.3874V548.143H14.9511V536.464L11.5551 538.48L10.9682 537.544L15.1607 534.967H16.2926V548.143Z" fill="url(#paint9_linear_175_198)" fill-opacity="0.6"/>
<path d="M15.0349 558.511C16.5302 558.511 17.6622 559.141 18.4308 560.402C19.2134 561.649 19.6047 563.464 19.6047 565.847C19.6047 568.23 19.2134 570.052 18.4308 571.312C17.6622 572.573 16.5302 573.204 15.0349 573.204C13.5536 573.204 12.4216 572.573 11.639 571.312C10.8564 570.052 10.4651 568.23 10.4651 565.847C10.4651 563.478 10.8564 561.663 11.639 560.402C12.4216 559.141 13.5536 558.511 15.0349 558.511ZM11.9534 565.847C11.9534 567.537 12.1072 568.86 12.4146 569.816L17.0683 560.61C16.5791 559.958 15.9013 559.633 15.0349 559.633C14.0706 559.633 13.316 560.145 12.771 561.171C12.2259 562.182 11.9534 563.741 11.9534 565.847ZM15.0349 572.061C16.0131 572.061 16.7748 571.555 17.3198 570.543C17.8648 569.518 18.1373 567.953 18.1373 565.847C18.1373 564.059 17.9627 562.674 17.6133 561.69L12.9596 570.98C13.4627 571.7 14.1545 572.061 15.0349 572.061Z" fill="url(#paint10_linear_175_198)" fill-opacity="0.6"/>
<path d="M16.2926 595.645H19.3741V596.747H11.3874V595.645H14.9511V583.966L11.5551 585.982L10.9682 585.046L15.1607 582.469H16.2926V595.645Z" fill="url(#paint11_linear_175_198)" fill-opacity="0.6"/>
<path d="M16.2926 619.396H19.3741V620.498H11.3874V619.396H14.9511V607.717L11.5551 609.733L10.9682 608.798L15.1607 606.221H16.2926V619.396Z" fill="url(#paint12_linear_175_198)" fill-opacity="0.6"/>
<path d="M53.9651 368.502C55.4604 368.502 56.5924 369.133 57.361 370.393C58.1436 371.64 58.5349 373.455 58.5349 375.838C58.5349 378.221 58.1436 380.043 57.361 381.304C56.5924 382.565 55.4604 383.195 53.9651 383.195C52.4838 383.195 51.3518 382.565 50.5692 381.304C49.7866 380.043 49.3953 378.221 49.3953 375.838C49.3953 373.469 49.7866 371.654 50.5692 370.393C51.3518 369.133 52.4838 368.502 53.9651 368.502ZM50.8836 375.838C50.8836 377.529 51.0374 378.852 51.3448 379.808L55.9985 370.601C55.5093 369.95 54.8315 369.624 53.9651 369.624C53.0008 369.624 52.2462 370.137 51.7012 371.162C51.1561 372.174 50.8836 373.732 50.8836 375.838ZM53.9651 382.052C54.9433 382.052 55.705 381.546 56.25 380.535C56.795 379.51 57.0675 377.944 57.0675 375.838C57.0675 374.051 56.8928 372.665 56.5435 371.682L51.8898 380.971C52.3929 381.692 53.0847 382.052 53.9651 382.052Z" fill="url(#paint13_linear_175_198)" fill-opacity="0.6"/>
<path d="M55.2228 405.637H58.3043V406.738H50.3176V405.637H53.8812V393.957L50.4853 395.973L49.8984 395.038L54.0909 392.461H55.2228V405.637Z" fill="url(#paint14_linear_175_198)" fill-opacity="0.6"/>
<path d="M53.9651 416.004C55.4604 416.004 56.5924 416.635 57.361 417.895C58.1436 419.142 58.5349 420.957 58.5349 423.34C58.5349 425.723 58.1436 427.545 57.361 428.806C56.5924 430.067 55.4604 430.697 53.9651 430.697C52.4838 430.697 51.3518 430.067 50.5692 428.806C49.7866 427.545 49.3953 425.723 49.3953 423.34C49.3953 420.971 49.7866 419.156 50.5692 417.895C51.3518 416.635 52.4838 416.004 53.9651 416.004ZM50.8836 423.34C50.8836 425.031 51.0374 426.354 51.3448 427.31L55.9985 418.103C55.5093 417.452 54.8315 417.126 53.9651 417.126C53.0008 417.126 52.2462 417.639 51.7012 418.664C51.1561 419.676 50.8836 421.234 50.8836 423.34ZM53.9651 429.554C54.9433 429.554 55.705 429.049 56.25 428.037C56.795 427.012 57.0675 425.446 57.0675 423.34C57.0675 421.553 56.8928 420.168 56.5435 419.184L51.8898 428.474C52.3929 429.194 53.0847 429.554 53.9651 429.554Z" fill="url(#paint15_linear_175_198)" fill-opacity="0.6"/>
<path d="M53.9651 439.755C55.4604 439.755 56.5924 440.386 57.361 441.646C58.1436 442.893 58.5349 444.708 58.5349 447.091C58.5349 449.474 58.1436 451.296 57.361 452.557C56.5924 453.818 55.4604 454.448 53.9651 454.448C52.4838 454.448 51.3518 453.818 50.5692 452.557C49.7866 451.296 49.3953 449.474 49.3953 447.091C49.3953 444.722 49.7866 442.907 50.5692 441.646C51.3518 440.386 52.4838 439.755 53.9651 439.755ZM50.8836 447.091C50.8836 448.782 51.0374 450.105 51.3448 451.061L55.9985 441.854C55.5093 441.203 54.8315 440.878 53.9651 440.878C53.0008 440.878 52.2462 441.39 51.7012 442.415C51.1561 443.427 50.8836 444.985 50.8836 447.091ZM53.9651 453.305C54.9433 453.305 55.705 452.8 56.25 451.788C56.795 450.763 57.0675 449.197 57.0675 447.091C57.0675 445.304 56.8928 443.919 56.5435 442.935L51.8898 452.225C52.3929 452.945 53.0847 453.305 53.9651 453.305Z" fill="url(#paint16_linear_175_198)" fill-opacity="0.6"/>
<path d="M55.2228 476.89H58.3043V477.992H50.3176V476.89H53.8812V465.21L50.4853 467.226L49.8984 466.291L54.0909 463.714H55.2228V476.89Z" fill="url(#paint17_linear_175_198)" fill-opacity="0.6"/>
<path d="M53.9651 487.257C55.4604 487.257 56.5924 487.888 57.361 489.149C58.1436 490.396 58.5349 492.211 58.5349 494.594C58.5349 496.977 58.1436 498.798 57.361 500.059C56.5924 501.32 55.4604 501.95 53.9651 501.95C52.4838 501.95 51.3518 501.32 50.5692 500.059C49.7866 498.798 49.3953 496.977 49.3953 494.594C49.3953 492.224 49.7866 490.409 50.5692 489.149C51.3518 487.888 52.4838 487.257 53.9651 487.257ZM50.8836 494.594C50.8836 496.284 51.0374 497.607 51.3448 498.563L55.9985 489.356C55.5093 488.705 54.8315 488.38 53.9651 488.38C53.0008 488.38 52.2462 488.892 51.7012 489.918C51.1561 490.929 50.8836 492.488 50.8836 494.594ZM53.9651 500.807C54.9433 500.807 55.705 500.302 56.25 499.29C56.795 498.265 57.0675 496.699 57.0675 494.594C57.0675 492.806 56.8928 491.421 56.5435 490.437L51.8898 499.727C52.3929 500.447 53.0847 500.807 53.9651 500.807Z" fill="url(#paint18_linear_175_198)" fill-opacity="0.6"/>
<path d="M55.2228 524.392H58.3043V525.494H50.3176V524.392H53.8812V512.713L50.4853 514.728L49.8984 513.793L54.0909 511.216H55.2228V524.392Z" fill="url(#paint19_linear_175_198)" fill-opacity="0.6"/>
<path d="M53.9651 534.76C55.4604 534.76 56.5924 535.39 57.361 536.651C58.1436 537.898 58.5349 539.713 58.5349 542.096C58.5349 544.479 58.1436 546.301 57.361 547.561C56.5924 548.822 55.4604 549.453 53.9651 549.453C52.4838 549.453 51.3518 548.822 50.5692 547.561C49.7866 546.301 49.3953 544.479 49.3953 542.096C49.3953 539.726 49.7866 537.911 50.5692 536.651C51.3518 535.39 52.4838 534.76 53.9651 534.76ZM50.8836 542.096C50.8836 543.786 51.0374 545.109 51.3448 546.065L55.9985 536.859C55.5093 536.207 54.8315 535.882 53.9651 535.882C53.0008 535.882 52.2462 536.394 51.7012 537.42C51.1561 538.431 50.8836 539.99 50.8836 542.096ZM53.9651 548.31C54.9433 548.31 55.705 547.804 56.25 546.792C56.795 545.767 57.0675 544.202 57.0675 542.096C57.0675 540.308 56.8928 538.923 56.5435 537.939L51.8898 547.229C52.3929 547.949 53.0847 548.31 53.9651 548.31Z" fill="url(#paint20_linear_175_198)" fill-opacity="0.6"/>
<path d="M53.9651 558.511C55.4604 558.511 56.5924 559.141 57.361 560.402C58.1436 561.649 58.5349 563.464 58.5349 565.847C58.5349 568.23 58.1436 570.052 57.361 571.312C56.5924 572.573 55.4604 573.204 53.9651 573.204C52.4838 573.204 51.3518 572.573 50.5692 571.312C49.7866 570.052 49.3953 568.23 49.3953 565.847C49.3953 563.478 49.7866 561.663 50.5692 560.402C51.3518 559.141 52.4838 558.511 53.9651 558.511ZM50.8836 565.847C50.8836 567.537 51.0374 568.86 51.3448 569.816L55.9985 560.61C55.5093 559.958 54.8315 559.633 53.9651 559.633C53.0008 559.633 52.2462 560.145 51.7012 561.171C51.1561 562.182 50.8836 563.741 50.8836 565.847ZM53.9651 572.061C54.9433 572.061 55.705 571.555 56.25 570.543C56.795 569.518 57.0675 567.953 57.0675 565.847C57.0675 564.059 56.8928 562.674 56.5435 561.69L51.8898 570.98C52.3929 571.7 53.0847 572.061 53.9651 572.061Z" fill="url(#paint21_linear_175_198)" fill-opacity="0.6"/>
<path d="M55.2228 595.645H58.3043V596.747H50.3176V595.645H53.8812V583.966L50.4853 585.982L49.8984 585.046L54.0909 582.469H55.2228V595.645Z" fill="url(#paint22_linear_175_198)" fill-opacity="0.6"/>
<path d="M53.9651 606.013C55.4604 606.013 56.5924 606.643 57.361 607.904C58.1436 609.151 58.5349 610.966 58.5349 613.349C58.5349 615.732 58.1436 617.554 57.361 618.815C56.5924 620.075 55.4604 620.706 53.9651 620.706C52.4838 620.706 51.3518 620.075 50.5692 618.815C49.7866 617.554 49.3953 615.732 49.3953 613.349C49.3953 610.98 49.7866 609.165 50.5692 607.904C51.3518 606.643 52.4838 606.013 53.9651 606.013ZM50.8836 613.349C50.8836 615.039 51.0374 616.362 51.3448 617.318L55.9985 608.112C55.5093 607.461 54.8315 607.135 53.9651 607.135C53.0008 607.135 52.2462 607.648 51.7012 608.673C51.1561 609.684 50.8836 611.243 50.8836 613.349ZM53.9651 619.563C54.9433 619.563 55.705 619.057 56.25 618.046C56.795 617.02 57.0675 615.455 57.0675 613.349C57.0675 611.562 56.8928 610.176 56.5435 609.192L51.8898 618.482C52.3929 619.202 53.0847 619.563 53.9651 619.563Z" fill="url(#paint23_linear_175_198)" fill-opacity="0.6"/>
<path d="M55.2228 643.148H58.3043V644.249H50.3176V643.148H53.8812V631.468L50.4853 633.484L49.8984 632.549L54.0909 629.972H55.2228V643.148Z" fill="url(#paint24_linear_175_198)" fill-opacity="0.6"/>
<path d="M55.2228 666.899H58.3043V668H50.3176V666.899H53.8812V655.219L50.4853 657.235L49.8984 656.3L54.0909 653.723H55.2228V666.899Z" fill="url(#paint25_linear_175_198)" fill-opacity="0.6"/>
<path d="M-4.43019 392.253C-2.93488 392.253 -1.8029 392.884 -1.03428 394.144C-0.251686 395.391 0.139612 397.206 0.139612 399.589C0.139612 401.972 -0.251686 403.794 -1.03428 405.055C-1.8029 406.316 -2.93488 406.946 -4.43019 406.946C-5.91154 406.946 -7.04351 406.316 -7.8261 405.055C-8.6087 403.794 -9 401.972 -9 399.589C-9 397.22 -8.6087 395.405 -7.8261 394.144C-7.04351 392.884 -5.91154 392.253 -4.43019 392.253ZM-7.51167 399.589C-7.51167 401.28 -7.35794 402.603 -7.0505 403.559L-2.39684 394.352C-2.88596 393.701 -3.56375 393.375 -4.43019 393.375C-5.39447 393.375 -6.14911 393.888 -6.69413 394.913C-7.23916 395.925 -7.51167 397.483 -7.51167 399.589ZM-4.43019 405.803C-3.45195 405.803 -2.69031 405.297 -2.14529 404.286C-1.60027 403.261 -1.32776 401.695 -1.32776 399.589C-1.32776 397.802 -1.50244 396.417 -1.85182 395.433L-6.50547 404.722C-6.00237 405.443 -5.31062 405.803 -4.43019 405.803Z" fill="url(#paint26_linear_175_198)" fill-opacity="0.6"/>
<path d="M-4.43019 416.004C-2.93488 416.004 -1.8029 416.635 -1.03428 417.895C-0.251686 419.142 0.139612 420.957 0.139612 423.34C0.139612 425.723 -0.251686 427.545 -1.03428 428.806C-1.8029 430.067 -2.93488 430.697 -4.43019 430.697C-5.91154 430.697 -7.04351 430.067 -7.8261 428.806C-8.6087 427.545 -9 425.723 -9 423.34C-9 420.971 -8.6087 419.156 -7.8261 417.895C-7.04351 416.635 -5.91154 416.004 -4.43019 416.004ZM-7.51167 423.34C-7.51167 425.031 -7.35794 426.354 -7.0505 427.31L-2.39684 418.103C-2.88596 417.452 -3.56375 417.126 -4.43019 417.126C-5.39447 417.126 -6.14911 417.639 -6.69413 418.664C-7.23916 419.676 -7.51167 421.234 -7.51167 423.34ZM-4.43019 429.554C-3.45195 429.554 -2.69031 429.049 -2.14529 428.037C-1.60027 427.012 -1.32776 425.446 -1.32776 423.34C-1.32776 421.553 -1.50244 420.168 -1.85182 419.184L-6.50547 428.474C-6.00237 429.194 -5.31062 429.554 -4.43019 429.554Z" fill="url(#paint27_linear_175_198)" fill-opacity="0.6"/>
<path d="M-3.17245 453.139H-0.0909746V454.24H-8.07765V453.139H-4.51404V441.459L-7.90995 443.475L-8.4969 442.54L-4.30442 439.963H-3.17245V453.139Z" fill="url(#paint28_linear_175_198)" fill-opacity="0.6"/>
<path d="M-4.43019 463.506C-2.93488 463.506 -1.8029 464.137 -1.03428 465.398C-0.251686 466.644 0.139612 468.459 0.139612 470.842C0.139612 473.225 -0.251686 475.047 -1.03428 476.308C-1.8029 477.569 -2.93488 478.199 -4.43019 478.199C-5.91154 478.199 -7.04351 477.569 -7.8261 476.308C-8.6087 475.047 -9 473.225 -9 470.842C-9 468.473 -8.6087 466.658 -7.8261 465.398C-7.04351 464.137 -5.91154 463.506 -4.43019 463.506ZM-7.51167 470.842C-7.51167 472.533 -7.35794 473.856 -7.0505 474.812L-2.39684 465.605C-2.88596 464.954 -3.56375 464.629 -4.43019 464.629C-5.39447 464.629 -6.14911 465.141 -6.69413 466.166C-7.23916 467.178 -7.51167 468.737 -7.51167 470.842ZM-4.43019 477.056C-3.45195 477.056 -2.69031 476.551 -2.14529 475.539C-1.60027 474.514 -1.32776 472.948 -1.32776 470.842C-1.32776 469.055 -1.50244 467.67 -1.85182 466.686L-6.50547 475.976C-6.00237 476.696 -5.31062 477.056 -4.43019 477.056Z" fill="url(#paint29_linear_175_198)" fill-opacity="0.6"/>
<path d="M-3.17245 500.641H-0.0909746V501.743H-8.07765V500.641H-4.51404V488.962L-7.90995 490.977L-8.4969 490.042L-4.30442 487.465H-3.17245V500.641Z" fill="url(#paint30_linear_175_198)" fill-opacity="0.6"/>
<path d="M-3.17245 524.392H-0.0909746V525.494H-8.07765V524.392H-4.51404V512.713L-7.90995 514.728L-8.4969 513.793L-4.30442 511.216H-3.17245V524.392Z" fill="url(#paint31_linear_175_198)" fill-opacity="0.6"/>
<path d="M35.7577 358.135H38.8392V359.236H30.8525V358.135H34.4162V346.455L31.0202 348.471L30.4333 347.536L34.6258 344.959H35.7577V358.135Z" fill="url(#paint32_linear_175_198)" fill-opacity="0.6"/>
<path d="M34.5 368.502C35.9953 368.502 37.1273 369.133 37.8959 370.393C38.6785 371.64 39.0698 373.455 39.0698 375.838C39.0698 378.221 38.6785 380.043 37.8959 381.304C37.1273 382.565 35.9953 383.195 34.5 383.195C33.0187 383.195 31.8867 382.565 31.1041 381.304C30.3215 380.043 29.9302 378.221 29.9302 375.838C29.9302 373.469 30.3215 371.654 31.1041 370.393C31.8867 369.133 33.0187 368.502 34.5 368.502ZM31.4185 375.838C31.4185 377.529 31.5723 378.852 31.8797 379.808L36.5334 370.601C36.0442 369.95 35.3664 369.624 34.5 369.624C33.5357 369.624 32.7811 370.137 32.2361 371.162C31.691 372.174 31.4185 373.732 31.4185 375.838ZM34.5 382.052C35.4782 382.052 36.2399 381.546 36.7849 380.535C37.3299 379.51 37.6024 377.944 37.6024 375.838C37.6024 374.051 37.4277 372.665 37.0784 371.682L32.4247 380.971C32.9278 381.692 33.6196 382.052 34.5 382.052Z" fill="url(#paint33_linear_175_198)" fill-opacity="0.6"/>
<path d="M35.7577 405.637H38.8392V406.738H30.8525V405.637H34.4162V393.957L31.0202 395.973L30.4333 395.038L34.6258 392.461H35.7577V405.637Z" fill="url(#paint34_linear_175_198)" fill-opacity="0.6"/>
<path d="M35.7577 429.388H38.8392V430.489H30.8525V429.388H34.4162V417.708L31.0202 419.724L30.4333 418.789L34.6258 416.212H35.7577V429.388Z" fill="url(#paint35_linear_175_198)" fill-opacity="0.6"/>
<path d="M34.5 439.755C35.9953 439.755 37.1273 440.386 37.8959 441.646C38.6785 442.893 39.0698 444.708 39.0698 447.091C39.0698 449.474 38.6785 451.296 37.8959 452.557C37.1273 453.818 35.9953 454.448 34.5 454.448C33.0187 454.448 31.8867 453.818 31.1041 452.557C30.3215 451.296 29.9302 449.474 29.9302 447.091C29.9302 444.722 30.3215 442.907 31.1041 441.646C31.8867 440.386 33.0187 439.755 34.5 439.755ZM31.4185 447.091C31.4185 448.782 31.5723 450.105 31.8797 451.061L36.5334 441.854C36.0442 441.203 35.3664 440.878 34.5 440.878C33.5357 440.878 32.7811 441.39 32.2361 442.415C31.691 443.427 31.4185 444.985 31.4185 447.091ZM34.5 453.305C35.4782 453.305 36.2399 452.8 36.7849 451.788C37.3299 450.763 37.6024 449.197 37.6024 447.091C37.6024 445.304 37.4277 443.919 37.0784 442.935L32.4247 452.225C32.9278 452.945 33.6196 453.305 34.5 453.305Z" fill="url(#paint36_linear_175_198)" fill-opacity="0.6"/>
<path d="M35.7577 476.89H38.8392V477.992H30.8525V476.89H34.4162V465.21L31.0202 467.226L30.4333 466.291L34.6258 463.714H35.7577V476.89Z" fill="url(#paint37_linear_175_198)" fill-opacity="0.6"/>
<path d="M35.7577 500.641H38.8392V501.743H30.8525V500.641H34.4162V488.962L31.0202 490.977L30.4333 490.042L34.6258 487.465H35.7577V500.641Z" fill="url(#paint38_linear_175_198)" fill-opacity="0.6"/>
<path d="M34.5 511.008C35.9953 511.008 37.1273 511.639 37.8959 512.9C38.6785 514.147 39.0698 515.962 39.0698 518.345C39.0698 520.728 38.6785 522.549 37.8959 523.81C37.1273 525.071 35.9953 525.701 34.5 525.701C33.0187 525.701 31.8867 525.071 31.1041 523.81C30.3215 522.549 29.9302 520.728 29.9302 518.345C29.9302 515.975 30.3215 514.16 31.1041 512.9C31.8867 511.639 33.0187 511.008 34.5 511.008ZM31.4185 518.345C31.4185 520.035 31.5723 521.358 31.8797 522.314L36.5334 513.107C36.0442 512.456 35.3664 512.131 34.5 512.131C33.5357 512.131 32.7811 512.643 32.2361 513.669C31.691 514.68 31.4185 516.239 31.4185 518.345ZM34.5 524.558C35.4782 524.558 36.2399 524.053 36.7849 523.041C37.3299 522.016 37.6024 520.451 37.6024 518.345C37.6024 516.557 37.4277 515.172 37.0784 514.188L32.4247 523.478C32.9278 524.198 33.6196 524.558 34.5 524.558Z" fill="url(#paint39_linear_175_198)" fill-opacity="0.6"/>
<path d="M35.7577 548.143H38.8392V549.245H30.8525V548.143H34.4162V536.464L31.0202 538.48L30.4333 537.544L34.6258 534.967H35.7577V548.143Z" fill="url(#paint40_linear_175_198)" fill-opacity="0.6"/>
<path d="M34.5 558.511C35.9953 558.511 37.1273 559.141 37.8959 560.402C38.6785 561.649 39.0698 563.464 39.0698 565.847C39.0698 568.23 38.6785 570.052 37.8959 571.312C37.1273 572.573 35.9953 573.204 34.5 573.204C33.0187 573.204 31.8867 572.573 31.1041 571.312C30.3215 570.052 29.9302 568.23 29.9302 565.847C29.9302 563.478 30.3215 561.663 31.1041 560.402C31.8867 559.141 33.0187 558.511 34.5 558.511ZM31.4185 565.847C31.4185 567.537 31.5723 568.86 31.8797 569.816L36.5334 560.61C36.0442 559.958 35.3664 559.633 34.5 559.633C33.5357 559.633 32.7811 560.145 32.2361 561.171C31.691 562.182 31.4185 563.741 31.4185 565.847ZM34.5 572.061C35.4782 572.061 36.2399 571.555 36.7849 570.543C37.3299 569.518 37.6024 567.953 37.6024 565.847C37.6024 564.059 37.4277 562.674 37.0784 561.69L32.4247 570.98C32.9278 571.7 33.6196 572.061 34.5 572.061Z" fill="url(#paint41_linear_175_198)" fill-opacity="0.6"/>
<path d="M73.4302 344.751C74.9255 344.751 76.0575 345.381 76.8261 346.642C77.6087 347.889 78 349.704 78 352.087C78 354.47 77.6087 356.292 76.8261 357.553C76.0575 358.814 74.9255 359.444 73.4302 359.444C71.9489 359.444 70.8169 358.814 70.0343 357.553C69.2517 356.292 68.8604 354.47 68.8604 352.087C68.8604 349.718 69.2517 347.903 70.0343 346.642C70.8169 345.381 71.9489 344.751 73.4302 344.751ZM70.3487 352.087C70.3487 353.777 70.5024 355.101 70.8099 356.057L75.4636 346.85C74.9744 346.199 74.2966 345.873 73.4302 345.873C72.4659 345.873 71.7113 346.386 71.1663 347.411C70.6212 348.423 70.3487 349.981 70.3487 352.087ZM73.4302 358.301C74.4084 358.301 75.1701 357.795 75.7151 356.784C76.2601 355.759 76.5326 354.193 76.5326 352.087C76.5326 350.3 76.3579 348.914 76.0086 347.931L71.3549 357.22C71.858 357.941 72.5498 358.301 73.4302 358.301Z" fill="url(#paint42_linear_175_198)" fill-opacity="0.6"/>
<path d="M74.6879 381.886H77.7694V382.987H69.7827V381.886H73.3463V370.206L69.9504 372.222L69.3635 371.287L73.556 368.71H74.6879V381.886Z" fill="url(#paint43_linear_175_198)" fill-opacity="0.6"/>
<path d="M74.6879 405.637H77.7694V406.738H69.7827V405.637H73.3463V393.957L69.9504 395.973L69.3635 395.038L73.556 392.461H74.6879V405.637Z" fill="url(#paint44_linear_175_198)" fill-opacity="0.6"/>
<path d="M73.4302 416.004C74.9255 416.004 76.0575 416.635 76.8261 417.895C77.6087 419.142 78 420.957 78 423.34C78 425.723 77.6087 427.545 76.8261 428.806C76.0575 430.067 74.9255 430.697 73.4302 430.697C71.9489 430.697 70.8169 430.067 70.0343 428.806C69.2517 427.545 68.8604 425.723 68.8604 423.34C68.8604 420.971 69.2517 419.156 70.0343 417.895C70.8169 416.635 71.9489 416.004 73.4302 416.004ZM70.3487 423.34C70.3487 425.031 70.5024 426.354 70.8099 427.31L75.4636 418.103C74.9744 417.452 74.2966 417.126 73.4302 417.126C72.4659 417.126 71.7113 417.639 71.1663 418.664C70.6212 419.676 70.3487 421.234 70.3487 423.34ZM73.4302 429.554C74.4084 429.554 75.1701 429.049 75.7151 428.037C76.2601 427.012 76.5326 425.446 76.5326 423.34C76.5326 421.553 76.3579 420.168 76.0086 419.184L71.3549 428.474C71.858 429.194 72.5498 429.554 73.4302 429.554Z" fill="url(#paint45_linear_175_198)" fill-opacity="0.6"/>
<path d="M73.4302 439.755C74.9255 439.755 76.0575 440.386 76.8261 441.646C77.6087 442.893 78 444.708 78 447.091C78 449.474 77.6087 451.296 76.8261 452.557C76.0575 453.818 74.9255 454.448 73.4302 454.448C71.9489 454.448 70.8169 453.818 70.0343 452.557C69.2517 451.296 68.8604 449.474 68.8604 447.091C68.8604 444.722 69.2517 442.907 70.0343 441.646C70.8169 440.386 71.9489 439.755 73.4302 439.755ZM70.3487 447.091C70.3487 448.782 70.5024 450.105 70.8099 451.061L75.4636 441.854C74.9744 441.203 74.2966 440.878 73.4302 440.878C72.4659 440.878 71.7113 441.39 71.1663 442.415C70.6212 443.427 70.3487 444.985 70.3487 447.091ZM73.4302 453.305C74.4084 453.305 75.1701 452.8 75.7151 451.788C76.2601 450.763 76.5326 449.197 76.5326 447.091C76.5326 445.304 76.3579 443.919 76.0086 442.935L71.3549 452.225C71.858 452.945 72.5498 453.305 73.4302 453.305Z" fill="url(#paint46_linear_175_198)" fill-opacity="0.6"/>
<g opacity="0.6">
<path d="M901.93 21C903.356 21 904.436 21.605 905.17 22.8149C905.916 24.0115 906.29 25.7532 906.29 28.0401C906.29 30.327 905.916 32.0754 905.17 33.2853C904.436 34.4952 903.356 35.1002 901.93 35.1002C900.517 35.1002 899.437 34.4952 898.69 33.2853C897.943 32.0754 897.57 30.327 897.57 28.0401C897.57 25.7665 897.943 24.0248 898.69 22.8149C899.437 21.605 900.517 21 901.93 21ZM898.99 28.0401C898.99 29.6622 899.137 30.932 899.43 31.8494L903.87 23.0143C903.403 22.3894 902.756 22.077 901.93 22.077C901.01 22.077 900.29 22.5689 899.77 23.5528C899.25 24.5234 898.99 26.0192 898.99 28.0401ZM901.93 34.0033C902.863 34.0033 903.59 33.518 904.11 32.5474C904.63 31.5635 904.89 30.0611 904.89 28.0401C904.89 26.325 904.723 24.9954 904.39 24.0514L899.95 32.9662C900.43 33.6576 901.09 34.0033 901.93 34.0033Z" fill="url(#paint47_linear_175_198)"/>
<path d="M903.13 56.6365H906.07V57.6936H898.45V56.6365H901.85V45.4282L898.61 47.3627L898.05 46.4653L902.05 43.9922H903.13V56.6365Z" fill="url(#paint48_linear_175_198)"/>
<path d="M901.93 66.5856C903.356 66.5856 904.436 67.1906 905.17 68.4005C905.916 69.5971 906.29 71.3389 906.29 73.6257C906.29 75.9126 905.916 77.661 905.17 78.8709C904.436 80.0808 903.356 80.6858 901.93 80.6858C900.517 80.6858 899.437 80.0808 898.69 78.8709C897.943 77.661 897.57 75.9126 897.57 73.6257C897.57 71.3522 897.943 69.6104 898.69 68.4005C899.437 67.1906 900.517 66.5856 901.93 66.5856ZM898.99 73.6257C898.99 75.2478 899.137 76.5176 899.43 77.435L903.87 68.5999C903.403 67.975 902.756 67.6626 901.93 67.6626C901.01 67.6626 900.29 68.1545 899.77 69.1384C899.25 70.109 898.99 71.6048 898.99 73.6257ZM901.93 79.5889C902.863 79.5889 903.59 79.1036 904.11 78.133C904.63 77.1491 904.89 75.6467 904.89 73.6257C904.89 71.9106 904.723 70.581 904.39 69.637L899.95 78.5518C900.43 79.2432 901.09 79.5889 901.93 79.5889Z" fill="url(#paint49_linear_175_198)"/>
<path d="M903.13 102.222H906.07V103.279H898.45V102.222H901.85V91.0138L898.61 92.9483L898.05 92.0509L902.05 89.5778H903.13V102.222Z" fill="url(#paint50_linear_175_198)"/>
<path d="M903.13 125.015H906.07V126.072H898.45V125.015H901.85V113.807L898.61 115.741L898.05 114.844L902.05 112.371H903.13V125.015Z" fill="url(#paint51_linear_175_198)"/>
<path d="M901.93 134.964C903.356 134.964 904.436 135.569 905.17 136.779C905.916 137.976 906.29 139.717 906.29 142.004C906.29 144.291 905.916 146.039 905.17 147.249C904.436 148.459 903.356 149.064 901.93 149.064C900.517 149.064 899.437 148.459 898.69 147.249C897.943 146.039 897.57 144.291 897.57 142.004C897.57 139.731 897.943 137.989 898.69 136.779C899.437 135.569 900.517 134.964 901.93 134.964ZM898.99 142.004C898.99 143.626 899.137 144.896 899.43 145.813L903.87 136.978C903.403 136.353 902.756 136.041 901.93 136.041C901.01 136.041 900.29 136.533 899.77 137.517C899.25 138.487 898.99 139.983 898.99 142.004ZM901.93 147.967C902.863 147.967 903.59 147.482 904.11 146.511C904.63 145.528 904.89 144.025 904.89 142.004C904.89 140.289 904.723 138.959 904.39 138.015L899.95 146.93C900.43 147.622 901.09 147.967 901.93 147.967Z" fill="url(#paint52_linear_175_198)"/>
<path d="M903.13 170.601H906.07V171.658H898.45V170.601H901.85V159.392L898.61 161.327L898.05 160.429L902.05 157.956H903.13V170.601Z" fill="url(#paint53_linear_175_198)"/>
<path d="M901.93 180.55C903.356 180.55 904.436 181.155 905.17 182.365C905.916 183.561 906.29 185.303 906.29 187.59C906.29 189.877 905.916 191.625 905.17 192.835C904.436 194.045 903.356 194.65 901.93 194.65C900.517 194.65 899.437 194.045 898.69 192.835C897.943 191.625 897.57 189.877 897.57 187.59C897.57 185.316 897.943 183.574 898.69 182.365C899.437 181.155 900.517 180.55 901.93 180.55ZM898.99 187.59C898.99 189.212 899.137 190.482 899.43 191.399L903.87 182.564C903.403 181.939 902.756 181.627 901.93 181.627C901.01 181.627 900.29 182.119 899.77 183.102C899.25 184.073 898.99 185.569 898.99 187.59ZM901.93 193.553C902.863 193.553 903.59 193.068 904.11 192.097C904.63 191.113 904.89 189.611 904.89 187.59C904.89 185.875 904.723 184.545 904.39 183.601L899.95 192.516C900.43 193.207 901.09 193.553 901.93 193.553Z" fill="url(#paint54_linear_175_198)"/>
<path d="M901.93 203.342C903.356 203.342 904.436 203.947 905.17 205.157C905.916 206.354 906.29 208.096 906.29 210.383C906.29 212.669 905.916 214.418 905.17 215.628C904.436 216.838 903.356 217.443 901.93 217.443C900.517 217.443 899.437 216.838 898.69 215.628C897.943 214.418 897.57 212.669 897.57 210.383C897.57 208.109 897.943 206.367 898.69 205.157C899.437 203.947 900.517 203.342 901.93 203.342ZM898.99 210.383C898.99 212.005 899.137 213.274 899.43 214.192L903.87 205.357C903.403 204.732 902.756 204.419 901.93 204.419C901.01 204.419 900.29 204.911 899.77 205.895C899.25 206.866 898.99 208.362 898.99 210.383ZM901.93 216.346C902.863 216.346 903.59 215.86 904.11 214.89C904.63 213.906 904.89 212.404 904.89 210.383C904.89 208.667 904.723 207.338 904.39 206.394L899.95 215.309C900.43 216 901.09 216.346 901.93 216.346Z" fill="url(#paint55_linear_175_198)"/>
<path d="M903.13 238.979H906.07V240.036H898.45V238.979H901.85V227.771L898.61 229.705L898.05 228.808L902.05 226.335H903.13V238.979Z" fill="url(#paint56_linear_175_198)"/>
<path d="M901.93 248.928C903.356 248.928 904.436 249.533 905.17 250.743C905.916 251.94 906.29 253.681 906.29 255.968C906.29 258.255 905.916 260.003 905.17 261.213C904.436 262.423 903.356 263.028 901.93 263.028C900.517 263.028 899.437 262.423 898.69 261.213C897.943 260.003 897.57 258.255 897.57 255.968C897.57 253.695 897.943 251.953 898.69 250.743C899.437 249.533 900.517 248.928 901.93 248.928ZM898.99 255.968C898.99 257.59 899.137 258.86 899.43 259.777L903.87 250.942C903.403 250.317 902.756 250.005 901.93 250.005C901.01 250.005 900.29 250.497 899.77 251.481C899.25 252.451 898.99 253.947 898.99 255.968ZM901.93 261.931C902.863 261.931 903.59 261.446 904.11 260.475C904.63 259.492 904.89 257.989 904.89 255.968C904.89 254.253 904.723 252.923 904.39 251.979L899.95 260.894C900.43 261.586 901.09 261.931 901.93 261.931Z" fill="url(#paint57_linear_175_198)"/>
<path d="M903.13 284.565H906.07V285.622H898.45V284.565H901.85V273.356L898.61 275.291L898.05 274.393L902.05 271.92H903.13V284.565Z" fill="url(#paint58_linear_175_198)"/>
<path d="M903.13 307.357H906.07V308.414H898.45V307.357H901.85V296.149L898.61 298.084L898.05 297.186L902.05 294.713H903.13V307.357Z" fill="url(#paint59_linear_175_198)"/>
<path d="M939.07 66.5856C940.497 66.5856 941.577 67.1906 942.31 68.4005C943.057 69.5971 943.43 71.3389 943.43 73.6257C943.43 75.9126 943.057 77.661 942.31 78.8709C941.577 80.0808 940.497 80.6858 939.07 80.6858C937.657 80.6858 936.577 80.0808 935.83 78.8709C935.084 77.661 934.71 75.9126 934.71 73.6257C934.71 71.3522 935.084 69.6104 935.83 68.4005C936.577 67.1906 937.657 66.5856 939.07 66.5856ZM936.13 73.6257C936.13 75.2478 936.277 76.5176 936.57 77.435L941.01 68.5999C940.543 67.975 939.897 67.6626 939.07 67.6626C938.15 67.6626 937.43 68.1545 936.91 69.1384C936.39 70.109 936.13 71.6048 936.13 73.6257ZM939.07 79.5889C940.003 79.5889 940.73 79.1036 941.25 78.133C941.77 77.1491 942.03 75.6467 942.03 73.6257C942.03 71.9106 941.863 70.581 941.53 69.637L937.09 78.5518C937.57 79.2432 938.23 79.5889 939.07 79.5889Z" fill="url(#paint60_linear_175_198)"/>
<path d="M940.27 102.222H943.21V103.279H935.59V102.222H938.99V91.0138L935.75 92.9483L935.19 92.0509L939.19 89.5778H940.27V102.222Z" fill="url(#paint61_linear_175_198)"/>
<path d="M939.07 112.171C940.497 112.171 941.577 112.776 942.31 113.986C943.057 115.183 943.43 116.924 943.43 119.211C943.43 121.498 943.057 123.247 942.31 124.457C941.577 125.666 940.497 126.271 939.07 126.271C937.657 126.271 936.577 125.666 935.83 124.457C935.084 123.247 934.71 121.498 934.71 119.211C934.71 116.938 935.084 115.196 935.83 113.986C936.577 112.776 937.657 112.171 939.07 112.171ZM936.13 119.211C936.13 120.833 936.277 122.103 936.57 123.021L941.01 114.186C940.543 113.561 939.897 113.248 939.07 113.248C938.15 113.248 937.43 113.74 936.91 114.724C936.39 115.695 936.13 117.19 936.13 119.211ZM939.07 125.174C940.003 125.174 940.73 124.689 941.25 123.719C941.77 122.735 942.03 121.232 942.03 119.211C942.03 117.496 941.863 116.167 941.53 115.223L937.09 124.137C937.57 124.829 938.23 125.174 939.07 125.174Z" fill="url(#paint62_linear_175_198)"/>
<path d="M939.07 134.964C940.497 134.964 941.577 135.569 942.31 136.779C943.057 137.976 943.43 139.717 943.43 142.004C943.43 144.291 943.057 146.039 942.31 147.249C941.577 148.459 940.497 149.064 939.07 149.064C937.657 149.064 936.577 148.459 935.83 147.249C935.084 146.039 934.71 144.291 934.71 142.004C934.71 139.731 935.084 137.989 935.83 136.779C936.577 135.569 937.657 134.964 939.07 134.964ZM936.13 142.004C936.13 143.626 936.277 144.896 936.57 145.813L941.01 136.978C940.543 136.353 939.897 136.041 939.07 136.041C938.15 136.041 937.43 136.533 936.91 137.517C936.39 138.487 936.13 139.983 936.13 142.004ZM939.07 147.967C940.003 147.967 940.73 147.482 941.25 146.511C941.77 145.528 942.03 144.025 942.03 142.004C942.03 140.289 941.863 138.959 941.53 138.015L937.09 146.93C937.57 147.622 938.23 147.967 939.07 147.967Z" fill="url(#paint63_linear_175_198)"/>
<path d="M940.27 170.601H943.21V171.658H935.59V170.601H938.99V159.392L935.75 161.327L935.19 160.429L939.19 157.956H940.27V170.601Z" fill="url(#paint64_linear_175_198)"/>
<path d="M939.07 180.55C940.497 180.55 941.577 181.155 942.31 182.365C943.057 183.561 943.43 185.303 943.43 187.59C943.43 189.877 943.057 191.625 942.31 192.835C941.577 194.045 940.497 194.65 939.07 194.65C937.657 194.65 936.577 194.045 935.83 192.835C935.084 191.625 934.71 189.877 934.71 187.59C934.71 185.316 935.084 183.574 935.83 182.365C936.577 181.155 937.657 180.55 939.07 180.55ZM936.13 187.59C936.13 189.212 936.277 190.482 936.57 191.399L941.01 182.564C940.543 181.939 939.897 181.627 939.07 181.627C938.15 181.627 937.43 182.119 936.91 183.102C936.39 184.073 936.13 185.569 936.13 187.59ZM939.07 193.553C940.003 193.553 940.73 193.068 941.25 192.097C941.77 191.113 942.03 189.611 942.03 187.59C942.03 185.875 941.863 184.545 941.53 183.601L937.09 192.516C937.57 193.207 938.23 193.553 939.07 193.553Z" fill="url(#paint65_linear_175_198)"/>
<path d="M940.27 216.186H943.21V217.243H935.59V216.186H938.99V204.978L935.75 206.912L935.19 206.015L939.19 203.542H940.27V216.186Z" fill="url(#paint66_linear_175_198)"/>
<path d="M939.07 226.135C940.497 226.135 941.577 226.74 942.31 227.95C943.057 229.147 943.43 230.888 943.43 233.175C943.43 235.462 943.057 237.211 942.31 238.421C941.577 239.63 940.497 240.235 939.07 240.235C937.657 240.235 936.577 239.63 935.83 238.421C935.084 237.211 934.71 235.462 934.71 233.175C934.71 230.902 935.084 229.16 935.83 227.95C936.577 226.74 937.657 226.135 939.07 226.135ZM936.13 233.175C936.13 234.797 936.277 236.067 936.57 236.985L941.01 228.15C940.543 227.525 939.897 227.212 939.07 227.212C938.15 227.212 937.43 227.704 936.91 228.688C936.39 229.659 936.13 231.154 936.13 233.175ZM939.07 239.139C940.003 239.139 940.73 238.653 941.25 237.683C941.77 236.699 942.03 235.196 942.03 233.175C942.03 231.46 941.863 230.131 941.53 229.187L937.09 238.101C937.57 238.793 938.23 239.139 939.07 239.139Z" fill="url(#paint67_linear_175_198)"/>
<path d="M939.07 248.928C940.497 248.928 941.577 249.533 942.31 250.743C943.057 251.94 943.43 253.681 943.43 255.968C943.43 258.255 943.057 260.003 942.31 261.213C941.577 262.423 940.497 263.028 939.07 263.028C937.657 263.028 936.577 262.423 935.83 261.213C935.084 260.003 934.71 258.255 934.71 255.968C934.71 253.695 935.084 251.953 935.83 250.743C936.577 249.533 937.657 248.928 939.07 248.928ZM936.13 255.968C936.13 257.59 936.277 258.86 936.57 259.777L941.01 250.942C940.543 250.317 939.897 250.005 939.07 250.005C938.15 250.005 937.43 250.497 936.91 251.481C936.39 252.451 936.13 253.947 936.13 255.968ZM939.07 261.931C940.003 261.931 940.73 261.446 941.25 260.475C941.77 259.492 942.03 257.989 942.03 255.968C942.03 254.253 941.863 252.923 941.53 251.979L937.09 260.894C937.57 261.586 938.23 261.931 939.07 261.931Z" fill="url(#paint68_linear_175_198)"/>
<path d="M940.27 284.565H943.21V285.622H935.59V284.565H938.99V273.356L935.75 275.291L935.19 274.393L939.19 271.92H940.27V284.565Z" fill="url(#paint69_linear_175_198)"/>
<path d="M939.07 294.514C940.497 294.514 941.577 295.119 942.31 296.329C943.057 297.525 943.43 299.267 943.43 301.554C943.43 303.841 943.057 305.589 942.31 306.799C941.577 308.009 940.497 308.614 939.07 308.614C937.657 308.614 936.577 308.009 935.83 306.799C935.084 305.589 934.71 303.841 934.71 301.554C934.71 299.28 935.084 297.538 935.83 296.329C936.577 295.119 937.657 294.514 939.07 294.514ZM936.13 301.554C936.13 303.176 936.277 304.446 936.57 305.363L941.01 296.528C940.543 295.903 939.897 295.591 939.07 295.591C938.15 295.591 937.43 296.083 936.91 297.066C936.39 298.037 936.13 299.533 936.13 301.554ZM939.07 307.517C940.003 307.517 940.73 307.032 941.25 306.061C941.77 305.077 942.03 303.575 942.03 301.554C942.03 299.839 941.863 298.509 941.53 297.565L937.09 306.48C937.57 307.171 938.23 307.517 939.07 307.517Z" fill="url(#paint70_linear_175_198)"/>
<path d="M940.27 330.15H943.21V331.207H935.59V330.15H938.99V318.942L935.75 320.876L935.19 319.979L939.19 317.506H940.27V330.15Z" fill="url(#paint71_linear_175_198)"/>
<path d="M940.27 352.943H943.21V354H935.59V352.943H938.99V341.735L935.75 343.669L935.19 342.772L939.19 340.299H940.27V352.943Z" fill="url(#paint72_linear_175_198)"/>
<path d="M883.36 89.3784C884.786 89.3784 885.866 89.9834 886.599 91.1933C887.346 92.3899 887.719 94.1317 887.719 96.4185C887.719 98.7054 887.346 100.454 886.599 101.664C885.866 102.874 884.786 103.479 883.36 103.479C881.946 103.479 880.867 102.874 880.12 101.664C879.373 100.454 879 98.7054 879 96.4185C879 94.145 879.373 92.4032 880.12 91.1933C880.867 89.9834 881.946 89.3784 883.36 89.3784ZM880.42 96.4185C880.42 98.0406 880.567 99.3104 880.86 100.228L885.3 91.3927C884.833 90.7678 884.186 90.4554 883.36 90.4554C882.44 90.4554 881.72 90.9473 881.2 91.9312C880.68 92.9018 880.42 94.3976 880.42 96.4185ZM883.36 102.382C884.293 102.382 885.02 101.896 885.54 100.926C886.06 99.9419 886.319 98.4395 886.319 96.4185C886.319 94.7034 886.153 93.3738 885.82 92.4298L881.38 101.345C881.86 102.036 882.52 102.382 883.36 102.382Z" fill="url(#paint73_linear_175_198)"/>
<path d="M883.36 112.171C884.786 112.171 885.866 112.776 886.599 113.986C887.346 115.183 887.719 116.924 887.719 119.211C887.719 121.498 887.346 123.247 886.599 124.457C885.866 125.666 884.786 126.271 883.36 126.271C881.946 126.271 880.867 125.666 880.12 124.457C879.373 123.247 879 121.498 879 119.211C879 116.938 879.373 115.196 880.12 113.986C880.867 112.776 881.946 112.171 883.36 112.171ZM880.42 119.211C880.42 120.833 880.567 122.103 880.86 123.021L885.3 114.186C884.833 113.561 884.186 113.248 883.36 113.248C882.44 113.248 881.72 113.74 881.2 114.724C880.68 115.695 880.42 117.19 880.42 119.211ZM883.36 125.174C884.293 125.174 885.02 124.689 885.54 123.719C886.06 122.735 886.319 121.232 886.319 119.211C886.319 117.496 886.153 116.167 885.82 115.223L881.38 124.137C881.86 124.829 882.52 125.174 883.36 125.174Z" fill="url(#paint74_linear_175_198)"/>
<path d="M884.56 147.808H887.499V148.865H879.88V147.808H883.28V136.599L880.04 138.534L879.48 137.636L883.48 135.163H884.56V147.808Z" fill="url(#paint75_linear_175_198)"/>
<path d="M883.36 157.757C884.786 157.757 885.866 158.362 886.599 159.572C887.346 160.768 887.719 162.51 887.719 164.797C887.719 167.084 887.346 168.832 886.599 170.042C885.866 171.252 884.786 171.857 883.36 171.857C881.946 171.857 880.867 171.252 880.12 170.042C879.373 168.832 879 167.084 879 164.797C879 162.523 879.373 160.782 880.12 159.572C880.867 158.362 881.946 157.757 883.36 157.757ZM880.42 164.797C880.42 166.419 880.567 167.689 880.86 168.606L885.3 159.771C884.833 159.146 884.186 158.834 883.36 158.834C882.44 158.834 881.72 159.326 881.2 160.31C880.68 161.28 880.42 162.776 880.42 164.797ZM883.36 170.76C884.293 170.76 885.02 170.275 885.54 169.304C886.06 168.32 886.319 166.818 886.319 164.797C886.319 163.082 886.153 161.752 885.82 160.808L881.38 169.723C881.86 170.414 882.52 170.76 883.36 170.76Z" fill="url(#paint76_linear_175_198)"/>
<path d="M884.56 193.393H887.499V194.45H879.88V193.393H883.28V182.185L880.04 184.12L879.48 183.222L883.48 180.749H884.56V193.393Z" fill="url(#paint77_linear_175_198)"/>
<path d="M884.56 216.186H887.499V217.243H879.88V216.186H883.28V204.978L880.04 206.912L879.48 206.015L883.48 203.542H884.56V216.186Z" fill="url(#paint78_linear_175_198)"/>
<path d="M921.7 56.6365H924.64V57.6936H917.02V56.6365H920.42V45.4282L917.18 47.3627L916.62 46.4653L920.62 43.9922H921.7V56.6365Z" fill="url(#paint79_linear_175_198)"/>
<path d="M920.5 66.5856C921.927 66.5856 923.006 67.1906 923.74 68.4005C924.486 69.5971 924.86 71.3389 924.86 73.6257C924.86 75.9126 924.486 77.661 923.74 78.8709C923.006 80.0808 921.927 80.6858 920.5 80.6858C919.087 80.6858 918.007 80.0808 917.26 78.8709C916.514 77.661 916.14 75.9126 916.14 73.6257C916.14 71.3522 916.514 69.6104 917.26 68.4005C918.007 67.1906 919.087 66.5856 920.5 66.5856ZM917.56 73.6257C917.56 75.2478 917.707 76.5176 918 77.435L922.44 68.5999C921.973 67.975 921.327 67.6626 920.5 67.6626C919.58 67.6626 918.86 68.1545 918.34 69.1384C917.82 70.109 917.56 71.6048 917.56 73.6257ZM920.5 79.5889C921.433 79.5889 922.16 79.1036 922.68 78.133C923.2 77.1491 923.46 75.6467 923.46 73.6257C923.46 71.9106 923.293 70.581 922.96 69.637L918.52 78.5518C919 79.2432 919.66 79.5889 920.5 79.5889Z" fill="url(#paint80_linear_175_198)"/>
<path d="M921.7 102.222H924.64V103.279H917.02V102.222H920.42V91.0138L917.18 92.9483L916.62 92.0509L920.62 89.5778H921.7V102.222Z" fill="url(#paint81_linear_175_198)"/>
<path d="M921.7 125.015H924.64V126.072H917.02V125.015H920.42V113.807L917.18 115.741L916.62 114.844L920.62 112.371H921.7V125.015Z" fill="url(#paint82_linear_175_198)"/>
<path d="M920.5 134.964C921.927 134.964 923.006 135.569 923.74 136.779C924.486 137.976 924.86 139.717 924.86 142.004C924.86 144.291 924.486 146.039 923.74 147.249C923.006 148.459 921.927 149.064 920.5 149.064C919.087 149.064 918.007 148.459 917.26 147.249C916.514 146.039 916.14 144.291 916.14 142.004C916.14 139.731 916.514 137.989 917.26 136.779C918.007 135.569 919.087 134.964 920.5 134.964ZM917.56 142.004C917.56 143.626 917.707 144.896 918 145.813L922.44 136.978C921.973 136.353 921.327 136.041 920.5 136.041C919.58 136.041 918.86 136.533 918.34 137.517C917.82 138.487 917.56 139.983 917.56 142.004ZM920.5 147.967C921.433 147.967 922.16 147.482 922.68 146.511C923.2 145.528 923.46 144.025 923.46 142.004C923.46 140.289 923.293 138.959 922.96 138.015L918.52 146.93C919 147.622 919.66 147.967 920.5 147.967Z" fill="url(#paint83_linear_175_198)"/>
<path d="M921.7 170.601H924.64V171.658H917.02V170.601H920.42V159.392L917.18 161.327L916.62 160.429L920.62 157.956H921.7V170.601Z" fill="url(#paint84_linear_175_198)"/>
<path d="M921.7 193.393H924.64V194.45H917.02V193.393H920.42V182.185L917.18 184.12L916.62 183.222L920.62 180.749H921.7V193.393Z" fill="url(#paint85_linear_175_198)"/>
<path d="M920.5 203.342C921.927 203.342 923.006 203.947 923.74 205.157C924.486 206.354 924.86 208.096 924.86 210.383C924.86 212.669 924.486 214.418 923.74 215.628C923.006 216.838 921.927 217.443 920.5 217.443C919.087 217.443 918.007 216.838 917.26 215.628C916.514 214.418 916.14 212.669 916.14 210.383C916.14 208.109 916.514 206.367 917.26 205.157C918.007 203.947 919.087 203.342 920.5 203.342ZM917.56 210.383C917.56 212.005 917.707 213.274 918 214.192L922.44 205.357C921.973 204.732 921.327 204.419 920.5 204.419C919.58 204.419 918.86 204.911 918.34 205.895C917.82 206.866 917.56 208.362 917.56 210.383ZM920.5 216.346C921.433 216.346 922.16 215.86 922.68 214.89C923.2 213.906 923.46 212.404 923.46 210.383C923.46 208.667 923.293 207.338 922.96 206.394L918.52 215.309C919 216 919.66 216.346 920.5 216.346Z" fill="url(#paint86_linear_175_198)"/>
<path d="M921.7 238.979H924.64V240.036H917.02V238.979H920.42V227.771L917.18 229.705L916.62 228.808L920.62 226.335H921.7V238.979Z" fill="url(#paint87_linear_175_198)"/>
<path d="M920.5 248.928C921.927 248.928 923.006 249.533 923.74 250.743C924.486 251.94 924.86 253.681 924.86 255.968C924.86 258.255 924.486 260.003 923.74 261.213C923.006 262.423 921.927 263.028 920.5 263.028C919.087 263.028 918.007 262.423 917.26 261.213C916.514 260.003 916.14 258.255 916.14 255.968C916.14 253.695 916.514 251.953 917.26 250.743C918.007 249.533 919.087 248.928 920.5 248.928ZM917.56 255.968C917.56 257.59 917.707 258.86 918 259.777L922.44 250.942C921.973 250.317 921.327 250.005 920.5 250.005C919.58 250.005 918.86 250.497 918.34 251.481C917.82 252.451 917.56 253.947 917.56 255.968ZM920.5 261.931C921.433 261.931 922.16 261.446 922.68 260.475C923.2 259.492 923.46 257.989 923.46 255.968C923.46 254.253 923.293 252.923 922.96 251.979L918.52 260.894C919 261.586 919.66 261.931 920.5 261.931Z" fill="url(#paint88_linear_175_198)"/>
<path d="M957.64 43.7928C959.067 43.7928 960.147 44.3978 960.88 45.6077C961.627 46.8043 962 48.5461 962 50.8329C962 53.1198 961.627 54.8682 960.88 56.0781C960.147 57.288 959.067 57.893 957.64 57.893C956.227 57.893 955.147 57.288 954.401 56.0781C953.654 54.8682 953.281 53.1198 953.281 50.8329C953.281 48.5593 953.654 46.8176 954.401 45.6077C955.147 44.3978 956.227 43.7928 957.64 43.7928ZM954.7 50.8329C954.7 52.455 954.847 53.7248 955.14 54.6422L959.58 45.8071C959.114 45.1822 958.467 44.8698 957.64 44.8698C956.72 44.8698 956 45.3617 955.48 46.3456C954.96 47.3162 954.7 48.812 954.7 50.8329ZM957.64 56.7961C958.574 56.7961 959.3 56.3108 959.82 55.3402C960.34 54.3563 960.6 52.8539 960.6 50.8329C960.6 49.1178 960.433 47.7882 960.1 46.8442L955.66 55.759C956.14 56.4504 956.8 56.7961 957.64 56.7961Z" fill="url(#paint89_linear_175_198)"/>
<path d="M958.84 79.4293H961.78V80.4864H954.161V79.4293H957.56V68.221L954.321 70.1555L953.761 69.2581L957.76 66.785H958.84V79.4293Z" fill="url(#paint90_linear_175_198)"/>
<path d="M958.84 102.222H961.78V103.279H954.161V102.222H957.56V91.0138L954.321 92.9483L953.761 92.0509L957.76 89.5778H958.84V102.222Z" fill="url(#paint91_linear_175_198)"/>
<path d="M957.64 112.171C959.067 112.171 960.147 112.776 960.88 113.986C961.627 115.183 962 116.924 962 119.211C962 121.498 961.627 123.247 960.88 124.457C960.147 125.666 959.067 126.271 957.64 126.271C956.227 126.271 955.147 125.666 954.401 124.457C953.654 123.247 953.281 121.498 953.281 119.211C953.281 116.938 953.654 115.196 954.401 113.986C955.147 112.776 956.227 112.171 957.64 112.171ZM954.7 119.211C954.7 120.833 954.847 122.103 955.14 123.021L959.58 114.186C959.114 113.561 958.467 113.248 957.64 113.248C956.72 113.248 956 113.74 955.48 114.724C954.96 115.695 954.7 117.19 954.7 119.211ZM957.64 125.174C958.574 125.174 959.3 124.689 959.82 123.719C960.34 122.735 960.6 121.232 960.6 119.211C960.6 117.496 960.433 116.167 960.1 115.223L955.66 124.137C956.14 124.829 956.8 125.174 957.64 125.174Z" fill="url(#paint92_linear_175_198)"/>
<path d="M957.64 134.964C959.067 134.964 960.147 135.569 960.88 136.779C961.627 137.976 962 139.717 962 142.004C962 144.291 961.627 146.039 960.88 147.249C960.147 148.459 959.067 149.064 957.64 149.064C956.227 149.064 955.147 148.459 954.401 147.249C953.654 146.039 953.281 144.291 953.281 142.004C953.281 139.731 953.654 137.989 954.401 136.779C955.147 135.569 956.227 134.964 957.64 134.964ZM954.7 142.004C954.7 143.626 954.847 144.896 955.14 145.813L959.58 136.978C959.114 136.353 958.467 136.041 957.64 136.041C956.72 136.041 956 136.533 955.48 137.517C954.96 138.487 954.7 139.983 954.7 142.004ZM957.64 147.967C958.574 147.967 959.3 147.482 959.82 146.511C960.34 145.528 960.6 144.025 960.6 142.004C960.6 140.289 960.433 138.959 960.1 138.015L955.66 146.93C956.14 147.622 956.8 147.967 957.64 147.967Z" fill="url(#paint93_linear_175_198)"/>
</g>
<defs>
<filter id="filter0_f_175_198" x="-576.19" y="-665.19" width="2141.38" height="1500.38" filterUnits="userSpaceOnUse" color-interpolation-filters="sRGB">
<feFlood flood-opacity="0" result="BackgroundImageFix"/>
<feBlend mode="normal" in="SourceGraphic" in2="BackgroundImageFix" result="shape"/>
<feGaussianBlur stdDeviation="200.095" result="effect1_foregroundBlur_175_198"/>
</filter>
<linearGradient id="paint0_linear_175_198" x1="34.5" y1="321" x2="34.5" y2="632.381" gradientUnits="userSpaceOnUse">
<stop stop-color="#F7DD43"/>
<stop offset="1" stop-color="#F7DD43" stop-opacity="0"/>
</linearGradient>
<linearGradient id="paint1_linear_175_198" x1="34.5" y1="321" x2="34.5" y2="632.381" gradientUnits="userSpaceOnUse">
<stop stop-color="#F7DD43"/>
<stop offset="1" stop-color="#F7DD43" stop-opacity="0"/>
</linearGradient>
<linearGradient id="paint2_linear_175_198" x1="34.5" y1="321" x2="34.5" y2="632.381" gradientUnits="userSpaceOnUse">
<stop stop-color="#F7DD43"/>
<stop offset="1" stop-color="#F7DD43" stop-opacity="0"/>
</linearGradient>
<linearGradient id="paint3_linear_175_198" x1="34.5" y1="321" x2="34.5" y2="632.381" gradientUnits="userSpaceOnUse">
<stop stop-color="#F7DD43"/>
<stop offset="1" stop-color="#F7DD43" stop-opacity="0"/>
</linearGradient>
<linearGradient id="paint4_linear_175_198" x1="34.5" y1="321" x2="34.5" y2="632.381" gradientUnits="userSpaceOnUse">
<stop stop-color="#F7DD43"/>
<stop offset="1" stop-color="#F7DD43" stop-opacity="0"/>
</linearGradient>
<linearGradient id="paint5_linear_175_198" x1="34.5" y1="321" x2="34.5" y2="632.381" gradientUnits="userSpaceOnUse">
<stop stop-color="#F7DD43"/>
<stop offset="1" stop-color="#F7DD43" stop-opacity="0"/>
</linearGradient>
<linearGradient id="paint6_linear_175_198" x1="34.5" y1="321" x2="34.5" y2="632.381" gradientUnits="userSpaceOnUse">
<stop stop-color="#F7DD43"/>
<stop offset="1" stop-color="#F7DD43" stop-opacity="0"/>
</linearGradient>
<linearGradient id="paint7_linear_175_198" x1="34.5" y1="321" x2="34.5" y2="632.381" gradientUnits="userSpaceOnUse">
<stop stop-color="#F7DD43"/>
<stop offset="1" stop-color="#F7DD43" stop-opacity="0"/>
</linearGradient>
<linearGradient id="paint8_linear_175_198" x1="34.5" y1="321" x2="34.5" y2="632.381" gradientUnits="userSpaceOnUse">
<stop stop-color="#F7DD43"/>
<stop offset="1" stop-color="#F7DD43" stop-opacity="0"/>
</linearGradient>
<linearGradient id="paint9_linear_175_198" x1="34.5" y1="321" x2="34.5" y2="632.381" gradientUnits="userSpaceOnUse">
<stop stop-color="#F7DD43"/>
<stop offset="1" stop-color="#F7DD43" stop-opacity="0"/>
</linearGradient>
<linearGradient id="paint10_linear_175_198" x1="34.5" y1="321" x2="34.5" y2="632.381" gradientUnits="userSpaceOnUse">
<stop stop-color="#F7DD43"/>
<stop offset="1" stop-color="#F7DD43" stop-opacity="0"/>
</linearGradient>
<linearGradient id="paint11_linear_175_198" x1="34.5" y1="321" x2="34.5" y2="632.381" gradientUnits="userSpaceOnUse">
<stop stop-color="#F7DD43"/>
<stop offset="1" stop-color="#F7DD43" stop-opacity="0"/>
</linearGradient>
<linearGradient id="paint12_linear_175_198" x1="34.5" y1="321" x2="34.5" y2="632.381" gradientUnits="userSpaceOnUse">
<stop stop-color="#F7DD43"/>
<stop offset="1" stop-color="#F7DD43" stop-opacity="0"/>
</linearGradient>
<linearGradient id="paint13_linear_175_198" x1="34.5" y1="321" x2="34.5" y2="632.381" gradientUnits="userSpaceOnUse">
<stop stop-color="#F7DD43"/>
<stop offset="1" stop-color="#F7DD43" stop-opacity="0"/>
</linearGradient>
<linearGradient id="paint14_linear_175_198" x1="34.5" y1="321" x2="34.5" y2="632.381" gradientUnits="userSpaceOnUse">
<stop stop-color="#F7DD43"/>
<stop offset="1" stop-color="#F7DD43" stop-opacity="0"/>
</linearGradient>
<linearGradient id="paint15_linear_175_198" x1="34.5" y1="321" x2="34.5" y2="632.381" gradientUnits="userSpaceOnUse">
<stop stop-color="#F7DD43"/>
<stop offset="1" stop-color="#F7DD43" stop-opacity="0"/>
</linearGradient>
<linearGradient id="paint16_linear_175_198" x1="34.5" y1="321" x2="34.5" y2="632.381" gradientUnits="userSpaceOnUse">
<stop stop-color="#F7DD43"/>
<stop offset="1" stop-color="#F7DD43" stop-opacity="0"/>
</linearGradient>
<linearGradient id="paint17_linear_175_198" x1="34.5" y1="321" x2="34.5" y2="632.381" gradientUnits="userSpaceOnUse">
<stop stop-color="#F7DD43"/>
<stop offset="1" stop-color="#F7DD43" stop-opacity="0"/>
</linearGradient>
<linearGradient id="paint18_linear_175_198" x1="34.5" y1="321" x2="34.5" y2="632.381" gradientUnits="userSpaceOnUse">
<stop stop-color="#F7DD43"/>
<stop offset="1" stop-color="#F7DD43" stop-opacity="0"/>
</linearGradient>
<linearGradient id="paint19_linear_175_198" x1="34.5" y1="321" x2="34.5" y2="632.381" gradientUnits="userSpaceOnUse">
<stop stop-color="#F7DD43"/>
<stop offset="1" stop-color="#F7DD43" stop-opacity="0"/>
</linearGradient>
<linearGradient id="paint20_linear_175_198" x1="34.5" y1="321" x2="34.5" y2="632.381" gradientUnits="userSpaceOnUse">
<stop stop-color="#F7DD43"/>
<stop offset="1" stop-color="#F7DD43" stop-opacity="0"/>
</linearGradient>
<linearGradient id="paint21_linear_175_198" x1="34.5" y1="321" x2="34.5" y2="632.381" gradientUnits="userSpaceOnUse">
<stop stop-color="#F7DD43"/>
<stop offset="1" stop-color="#F7DD43" stop-opacity="0"/>
</linearGradient>
<linearGradient id="paint22_linear_175_198" x1="34.5" y1="321" x2="34.5" y2="632.381" gradientUnits="userSpaceOnUse">
<stop stop-color="#F7DD43"/>
<stop offset="1" stop-color="#F7DD43" stop-opacity="0"/>
</linearGradient>
<linearGradient id="paint23_linear_175_198" x1="34.5" y1="321" x2="34.5" y2="632.381" gradientUnits="userSpaceOnUse">
<stop stop-color="#F7DD43"/>
<stop offset="1" stop-color="#F7DD43" stop-opacity="0"/>
</linearGradient>
<linearGradient id="paint24_linear_175_198" x1="34.5" y1="321" x2="34.5" y2="632.381" gradientUnits="userSpaceOnUse">
<stop stop-color="#F7DD43"/>
<stop offset="1" stop-color="#F7DD43" stop-opacity="0"/>
</linearGradient>
<linearGradient id="paint25_linear_175_198" x1="34.5" y1="321" x2="34.5" y2="632.381" gradientUnits="userSpaceOnUse">
<stop stop-color="#F7DD43"/>
<stop offset="1" stop-color="#F7DD43" stop-opacity="0"/>
</linearGradient>
<linearGradient id="paint26_linear_175_198" x1="34.5" y1="321" x2="34.5" y2="632.381" gradientUnits="userSpaceOnUse">
<stop stop-color="#F7DD43"/>
<stop offset="1" stop-color="#F7DD43" stop-opacity="0"/>
</linearGradient>
<linearGradient id="paint27_linear_175_198" x1="34.5" y1="321" x2="34.5" y2="632.381" gradientUnits="userSpaceOnUse">
<stop stop-color="#F7DD43"/>
<stop offset="1" stop-color="#F7DD43" stop-opacity="0"/>
</linearGradient>
<linearGradient id="paint28_linear_175_198" x1="34.5" y1="321" x2="34.5" y2="632.381" gradientUnits="userSpaceOnUse">
<stop stop-color="#F7DD43"/>
<stop offset="1" stop-color="#F7DD43" stop-opacity="0"/>
</linearGradient>
<linearGradient id="paint29_linear_175_198" x1="34.5" y1="321" x2="34.5" y2="632.381" gradientUnits="userSpaceOnUse">
<stop stop-color="#F7DD43"/>
<stop offset="1" stop-color="#F7DD43" stop-opacity="0"/>
</linearGradient>
<linearGradient id="paint30_linear_175_198" x1="34.5" y1="321" x2="34.5" y2="632.381" gradientUnits="userSpaceOnUse">
<stop stop-color="#F7DD43"/>
<stop offset="1" stop-color="#F7DD43" stop-opacity="0"/>
</linearGradient>
<linearGradient id="paint31_linear_175_198" x1="34.5" y1="321" x2="34.5" y2="632.381" gradientUnits="userSpaceOnUse">
<stop stop-color="#F7DD43"/>
<stop offset="1" stop-color="#F7DD43" stop-opacity="0"/>
</linearGradient>
<linearGradient id="paint32_linear_175_198" x1="34.5" y1="321" x2="34.5" y2="632.381" gradientUnits="userSpaceOnUse">
<stop stop-color="#F7DD43"/>
<stop offset="1" stop-color="#F7DD43" stop-opacity="0"/>
</linearGradient>
<linearGradient id="paint33_linear_175_198" x1="34.5" y1="321" x2="34.5" y2="632.381" gradientUnits="userSpaceOnUse">
<stop stop-color="#F7DD43"/>
<stop offset="1" stop-color="#F7DD43" stop-opacity="0"/>
</linearGradient>
<linearGradient id="paint34_linear_175_198" x1="34.5" y1="321" x2="34.5" y2="632.381" gradientUnits="userSpaceOnUse">
<stop stop-color="#F7DD43"/>
<stop offset="1" stop-color="#F7DD43" stop-opacity="0"/>
</linearGradient>
<linearGradient id="paint35_linear_175_198" x1="34.5" y1="321" x2="34.5" y2="632.381" gradientUnits="userSpaceOnUse">
<stop stop-color="#F7DD43"/>
<stop offset="1" stop-color="#F7DD43" stop-opacity="0"/>
</linearGradient>
<linearGradient id="paint36_linear_175_198" x1="34.5" y1="321" x2="34.5" y2="632.381" gradientUnits="userSpaceOnUse">
<stop stop-color="#F7DD43"/>
<stop offset="1" stop-color="#F7DD43" stop-opacity="0"/>
</linearGradient>
<linearGradient id="paint37_linear_175_198" x1="34.5" y1="321" x2="34.5" y2="632.381" gradientUnits="userSpaceOnUse">
<stop stop-color="#F7DD43"/>
<stop offset="1" stop-color="#F7DD43" stop-opacity="0"/>
</linearGradient>
<linearGradient id="paint38_linear_175_198" x1="34.5" y1="321" x2="34.5" y2="632.381" gradientUnits="userSpaceOnUse">
<stop stop-color="#F7DD43"/>
<stop offset="1" stop-color="#F7DD43" stop-opacity="0"/>
</linearGradient>
<linearGradient id="paint39_linear_175_198" x1="34.5" y1="321" x2="34.5" y2="632.381" gradientUnits="userSpaceOnUse">
<stop stop-color="#F7DD43"/>
<stop offset="1" stop-color="#F7DD43" stop-opacity="0"/>
</linearGradient>
<linearGradient id="paint40_linear_175_198" x1="34.5" y1="321" x2="34.5" y2="632.381" gradientUnits="userSpaceOnUse">
<stop stop-color="#F7DD43"/>
<stop offset="1" stop-color="#F7DD43" stop-opacity="0"/>
</linearGradient>
<linearGradient id="paint41_linear_175_198" x1="34.5" y1="321" x2="34.5" y2="632.381" gradientUnits="userSpaceOnUse">
<stop stop-color="#F7DD43"/>
<stop offset="1" stop-color="#F7DD43" stop-opacity="0"/>
</linearGradient>
<linearGradient id="paint42_linear_175_198" x1="34.5" y1="321" x2="34.5" y2="632.381" gradientUnits="userSpaceOnUse">
<stop stop-color="#F7DD43"/>
<stop offset="1" stop-color="#F7DD43" stop-opacity="0"/>
</linearGradient>
<linearGradient id="paint43_linear_175_198" x1="34.5" y1="321" x2="34.5" y2="632.381" gradientUnits="userSpaceOnUse">
<stop stop-color="#F7DD43"/>
<stop offset="1" stop-color="#F7DD43" stop-opacity="0"/>
</linearGradient>
<linearGradient id="paint44_linear_175_198" x1="34.5" y1="321" x2="34.5" y2="632.381" gradientUnits="userSpaceOnUse">
<stop stop-color="#F7DD43"/>
<stop offset="1" stop-color="#F7DD43" stop-opacity="0"/>
</linearGradient>
<linearGradient id="paint45_linear_175_198" x1="34.5" y1="321" x2="34.5" y2="632.381" gradientUnits="userSpaceOnUse">
<stop stop-color="#F7DD43"/>
<stop offset="1" stop-color="#F7DD43" stop-opacity="0"/>
</linearGradient>
<linearGradient id="paint46_linear_175_198" x1="34.5" y1="321" x2="34.5" y2="632.381" gradientUnits="userSpaceOnUse">
<stop stop-color="#F7DD43"/>
<stop offset="1" stop-color="#F7DD43" stop-opacity="0"/>
</linearGradient>
<linearGradient id="paint47_linear_175_198" x1="920.5" y1="21" x2="920.5" y2="319.818" gradientUnits="userSpaceOnUse">
<stop stop-color="#F7DD43"/>
<stop offset="1" stop-color="#F7DD43" stop-opacity="0"/>
</linearGradient>
<linearGradient id="paint48_linear_175_198" x1="920.5" y1="21" x2="920.5" y2="319.818" gradientUnits="userSpaceOnUse">
<stop stop-color="#F7DD43"/>
<stop offset="1" stop-color="#F7DD43" stop-opacity="0"/>
</linearGradient>
<linearGradient id="paint49_linear_175_198" x1="920.5" y1="21" x2="920.5" y2="319.818" gradientUnits="userSpaceOnUse">
<stop stop-color="#F7DD43"/>
<stop offset="1" stop-color="#F7DD43" stop-opacity="0"/>
</linearGradient>
<linearGradient id="paint50_linear_175_198" x1="920.5" y1="21" x2="920.5" y2="319.818" gradientUnits="userSpaceOnUse">
<stop stop-color="#F7DD43"/>
<stop offset="1" stop-color="#F7DD43" stop-opacity="0"/>
</linearGradient>
<linearGradient id="paint51_linear_175_198" x1="920.5" y1="21" x2="920.5" y2="319.818" gradientUnits="userSpaceOnUse">
<stop stop-color="#F7DD43"/>
<stop offset="1" stop-color="#F7DD43" stop-opacity="0"/>
</linearGradient>
<linearGradient id="paint52_linear_175_198" x1="920.5" y1="21" x2="920.5" y2="319.818" gradientUnits="userSpaceOnUse">
<stop stop-color="#F7DD43"/>
<stop offset="1" stop-color="#F7DD43" stop-opacity="0"/>
</linearGradient>
<linearGradient id="paint53_linear_175_198" x1="920.5" y1="21" x2="920.5" y2="319.818" gradientUnits="userSpaceOnUse">
<stop stop-color="#F7DD43"/>
<stop offset="1" stop-color="#F7DD43" stop-opacity="0"/>
</linearGradient>
<linearGradient id="paint54_linear_175_198" x1="920.5" y1="21" x2="920.5" y2="319.818" gradientUnits="userSpaceOnUse">
<stop stop-color="#F7DD43"/>
<stop offset="1" stop-color="#F7DD43" stop-opacity="0"/>
</linearGradient>
<linearGradient id="paint55_linear_175_198" x1="920.5" y1="21" x2="920.5" y2="319.818" gradientUnits="userSpaceOnUse">
<stop stop-color="#F7DD43"/>
<stop offset="1" stop-color="#F7DD43" stop-opacity="0"/>
</linearGradient>
<linearGradient id="paint56_linear_175_198" x1="920.5" y1="21" x2="920.5" y2="319.818" gradientUnits="userSpaceOnUse">
<stop stop-color="#F7DD43"/>
<stop offset="1" stop-color="#F7DD43" stop-opacity="0"/>
</linearGradient>
<linearGradient id="paint57_linear_175_198" x1="920.5" y1="21" x2="920.5" y2="319.818" gradientUnits="userSpaceOnUse">
<stop stop-color="#F7DD43"/>
<stop offset="1" stop-color="#F7DD43" stop-opacity="0"/>
</linearGradient>
<linearGradient id="paint58_linear_175_198" x1="920.5" y1="21" x2="920.5" y2="319.818" gradientUnits="userSpaceOnUse">
<stop stop-color="#F7DD43"/>
<stop offset="1" stop-color="#F7DD43" stop-opacity="0"/>
</linearGradient>
<linearGradient id="paint59_linear_175_198" x1="920.5" y1="21" x2="920.5" y2="319.818" gradientUnits="userSpaceOnUse">
<stop stop-color="#F7DD43"/>
<stop offset="1" stop-color="#F7DD43" stop-opacity="0"/>
</linearGradient>
<linearGradient id="paint60_linear_175_198" x1="920.5" y1="21" x2="920.5" y2="319.818" gradientUnits="userSpaceOnUse">
<stop stop-color="#F7DD43"/>
<stop offset="1" stop-color="#F7DD43" stop-opacity="0"/>
</linearGradient>
<linearGradient id="paint61_linear_175_198" x1="920.5" y1="21" x2="920.5" y2="319.818" gradientUnits="userSpaceOnUse">
<stop stop-color="#F7DD43"/>
<stop offset="1" stop-color="#F7DD43" stop-opacity="0"/>
</linearGradient>
<linearGradient id="paint62_linear_175_198" x1="920.5" y1="21" x2="920.5" y2="319.818" gradientUnits="userSpaceOnUse">
<stop stop-color="#F7DD43"/>
<stop offset="1" stop-color="#F7DD43" stop-opacity="0"/>
</linearGradient>
<linearGradient id="paint63_linear_175_198" x1="920.5" y1="21" x2="920.5" y2="319.818" gradientUnits="userSpaceOnUse">
<stop stop-color="#F7DD43"/>
<stop offset="1" stop-color="#F7DD43" stop-opacity="0"/>
</linearGradient>
<linearGradient id="paint64_linear_175_198" x1="920.5" y1="21" x2="920.5" y2="319.818" gradientUnits="userSpaceOnUse">
<stop stop-color="#F7DD43"/>
<stop offset="1" stop-color="#F7DD43" stop-opacity="0"/>
</linearGradient>
<linearGradient id="paint65_linear_175_198" x1="920.5" y1="21" x2="920.5" y2="319.818" gradientUnits="userSpaceOnUse">
<stop stop-color="#F7DD43"/>
<stop offset="1" stop-color="#F7DD43" stop-opacity="0"/>
</linearGradient>
<linearGradient id="paint66_linear_175_198" x1="920.5" y1="21" x2="920.5" y2="319.818" gradientUnits="userSpaceOnUse">
<stop stop-color="#F7DD43"/>
<stop offset="1" stop-color="#F7DD43" stop-opacity="0"/>
</linearGradient>
<linearGradient id="paint67_linear_175_198" x1="920.5" y1="21" x2="920.5" y2="319.818" gradientUnits="userSpaceOnUse">
<stop stop-color="#F7DD43"/>
<stop offset="1" stop-color="#F7DD43" stop-opacity="0"/>
</linearGradient>
<linearGradient id="paint68_linear_175_198" x1="920.5" y1="21" x2="920.5" y2="319.818" gradientUnits="userSpaceOnUse">
<stop stop-color="#F7DD43"/>
<stop offset="1" stop-color="#F7DD43" stop-opacity="0"/>
</linearGradient>
<linearGradient id="paint69_linear_175_198" x1="920.5" y1="21" x2="920.5" y2="319.818" gradientUnits="userSpaceOnUse">
<stop stop-color="#F7DD43"/>
<stop offset="1" stop-color="#F7DD43" stop-opacity="0"/>
</linearGradient>
<linearGradient id="paint70_linear_175_198" x1="920.5" y1="21" x2="920.5" y2="319.818" gradientUnits="userSpaceOnUse">
<stop stop-color="#F7DD43"/>
<stop offset="1" stop-color="#F7DD43" stop-opacity="0"/>
</linearGradient>
<linearGradient id="paint71_linear_175_198" x1="920.5" y1="21" x2="920.5" y2="319.818" gradientUnits="userSpaceOnUse">
<stop stop-color="#F7DD43"/>
<stop offset="1" stop-color="#F7DD43" stop-opacity="0"/>
</linearGradient>
<linearGradient id="paint72_linear_175_198" x1="920.5" y1="21" x2="920.5" y2="319.818" gradientUnits="userSpaceOnUse">
<stop stop-color="#F7DD43"/>
<stop offset="1" stop-color="#F7DD43" stop-opacity="0"/>
</linearGradient>
<linearGradient id="paint73_linear_175_198" x1="920.5" y1="21" x2="920.5" y2="319.818" gradientUnits="userSpaceOnUse">
<stop stop-color="#F7DD43"/>
<stop offset="1" stop-color="#F7DD43" stop-opacity="0"/>
</linearGradient>
<linearGradient id="paint74_linear_175_198" x1="920.5" y1="21" x2="920.5" y2="319.818" gradientUnits="userSpaceOnUse">
<stop stop-color="#F7DD43"/>
<stop offset="1" stop-color="#F7DD43" stop-opacity="0"/>
</linearGradient>
<linearGradient id="paint75_linear_175_198" x1="920.5" y1="21" x2="920.5" y2="319.818" gradientUnits="userSpaceOnUse">
<stop stop-color="#F7DD43"/>
<stop offset="1" stop-color="#F7DD43" stop-opacity="0"/>
</linearGradient>
<linearGradient id="paint76_linear_175_198" x1="920.5" y1="21" x2="920.5" y2="319.818" gradientUnits="userSpaceOnUse">
<stop stop-color="#F7DD43"/>
<stop offset="1" stop-color="#F7DD43" stop-opacity="0"/>
</linearGradient>
<linearGradient id="paint77_linear_175_198" x1="920.5" y1="21" x2="920.5" y2="319.818" gradientUnits="userSpaceOnUse">
<stop stop-color="#F7DD43"/>
<stop offset="1" stop-color="#F7DD43" stop-opacity="0"/>
</linearGradient>
<linearGradient id="paint78_linear_175_198" x1="920.5" y1="21" x2="920.5" y2="319.818" gradientUnits="userSpaceOnUse">
<stop stop-color="#F7DD43"/>
<stop offset="1" stop-color="#F7DD43" stop-opacity="0"/>
</linearGradient>
<linearGradient id="paint79_linear_175_198" x1="920.5" y1="21" x2="920.5" y2="319.818" gradientUnits="userSpaceOnUse">
<stop stop-color="#F7DD43"/>
<stop offset="1" stop-color="#F7DD43" stop-opacity="0"/>
</linearGradient>
<linearGradient id="paint80_linear_175_198" x1="920.5" y1="21" x2="920.5" y2="319.818" gradientUnits="userSpaceOnUse">
<stop stop-color="#F7DD43"/>
<stop offset="1" stop-color="#F7DD43" stop-opacity="0"/>
</linearGradient>
<linearGradient id="paint81_linear_175_198" x1="920.5" y1="21" x2="920.5" y2="319.818" gradientUnits="userSpaceOnUse">
<stop stop-color="#F7DD43"/>
<stop offset="1" stop-color="#F7DD43" stop-opacity="0"/>
</linearGradient>
<linearGradient id="paint82_linear_175_198" x1="920.5" y1="21" x2="920.5" y2="319.818" gradientUnits="userSpaceOnUse">
<stop stop-color="#F7DD43"/>
<stop offset="1" stop-color="#F7DD43" stop-opacity="0"/>
</linearGradient>
<linearGradient id="paint83_linear_175_198" x1="920.5" y1="21" x2="920.5" y2="319.818" gradientUnits="userSpaceOnUse">
<stop stop-color="#F7DD43"/>
<stop offset="1" stop-color="#F7DD43" stop-opacity="0"/>
</linearGradient>
<linearGradient id="paint84_linear_175_198" x1="920.5" y1="21" x2="920.5" y2="319.818" gradientUnits="userSpaceOnUse">
<stop stop-color="#F7DD43"/>
<stop offset="1" stop-color="#F7DD43" stop-opacity="0"/>
</linearGradient>
<linearGradient id="paint85_linear_175_198" x1="920.5" y1="21" x2="920.5" y2="319.818" gradientUnits="userSpaceOnUse">
<stop stop-color="#F7DD43"/>
<stop offset="1" stop-color="#F7DD43" stop-opacity="0"/>
</linearGradient>
<linearGradient id="paint86_linear_175_198" x1="920.5" y1="21" x2="920.5" y2="319.818" gradientUnits="userSpaceOnUse">
<stop stop-color="#F7DD43"/>
<stop offset="1" stop-color="#F7DD43" stop-opacity="0"/>
</linearGradient>
<linearGradient id="paint87_linear_175_198" x1="920.5" y1="21" x2="920.5" y2="319.818" gradientUnits="userSpaceOnUse">
<stop stop-color="#F7DD43"/>
<stop offset="1" stop-color="#F7DD43" stop-opacity="0"/>
</linearGradient>
<linearGradient id="paint88_linear_175_198" x1="920.5" y1="21" x2="920.5" y2="319.818" gradientUnits="userSpaceOnUse">
<stop stop-color="#F7DD43"/>
<stop offset="1" stop-color="#F7DD43" stop-opacity="0"/>
</linearGradient>
<linearGradient id="paint89_linear_175_198" x1="920.5" y1="21" x2="920.5" y2="319.818" gradientUnits="userSpaceOnUse">
<stop stop-color="#F7DD43"/>
<stop offset="1" stop-color="#F7DD43" stop-opacity="0"/>
</linearGradient>
<linearGradient id="paint90_linear_175_198" x1="920.5" y1="21" x2="920.5" y2="319.818" gradientUnits="userSpaceOnUse">
<stop stop-color="#F7DD43"/>
<stop offset="1" stop-color="#F7DD43" stop-opacity="0"/>
</linearGradient>
<linearGradient id="paint91_linear_175_198" x1="920.5" y1="21" x2="920.5" y2="319.818" gradientUnits="userSpaceOnUse">
<stop stop-color="#F7DD43"/>
<stop offset="1" stop-color="#F7DD43" stop-opacity="0"/>
</linearGradient>
<linearGradient id="paint92_linear_175_198" x1="920.5" y1="21" x2="920.5" y2="319.818" gradientUnits="userSpaceOnUse">
<stop stop-color="#F7DD43"/>
<stop offset="1" stop-color="#F7DD43" stop-opacity="0"/>
</linearGradient>
<linearGradient id="paint93_linear_175_198" x1="920.5" y1="21" x2="920.5" y2="319.818" gradientUnits="userSpaceOnUse">
<stop stop-color="#F7DD43"/>
<stop offset="1" stop-color="#F7DD43" stop-opacity="0"/>
</linearGradient>
</defs>
</svg>
